<svg xmlns="http://www.w3.org/2000/svg" id="Layer_2" data-name="Layer 2" viewBox="0 -42.27 504.9 169.63">
  <defs>
    <style>
      .cls-1 {
        font-size: 114.62px;
      }

      .cls-1, .cls-3 {
        font-family: Degular-Medium, Degular;
        font-weight: 500;
      }

      .cls-3 {
        font-size: 29.71px;
      }

      .cls-4 {
        letter-spacing: -.02em;
      }

      .cls-5 {
        letter-spacing: 0em;
      }

      .cls-6 {
        letter-spacing: 0em;
      }

      .cls-7 {
        letter-spacing: 0em;
      }
    </style>
  </defs>
  <g id="Layer_1-2" data-name="Layer 1">
    <text class="cls-3" transform="translate(265.83 118.36)"><tspan x="0" y="0">Ele</tspan><tspan class="cls-4" x="37.41" y="0">v</tspan><tspan class="cls-6" x="50.8" y="0">ate your world</tspan></text>
    <g>
      <path class="cls-2" d="M145.93,8c-7.95-4.1-22.22-7.35-49.67,14.26-5.95,4.69-33.51,25.57-39.05,30.7-5.31,4.93-10.59,9.89-15.78,14.95-1.18,1.15-2.36,2.3-3.53,3.45l-29.23-14.04c-2.52-1.21-5.63-.54-7.41,1.76-2.04,2.65-1.55,6.45,1.1,8.49l30.93,23.85c.1,.07,6.29,5.36,12.81,1.61,5.44-3.12,10.87-6.28,16.24-9.53,6.32-3.83,12.6-7.72,18.86-11.64,5.44-3.42,10.84-6.89,16.23-10.38l-1.42,17.12c-.31,3.94,2.38,7.59,6.35,8.35,4.25,.8,8.35-1.99,9.15-6.24l6.16-32.56c.5-.33,1-.66,1.5-1,5.91-3.95,11.54-8.25,17.09-12.7,8.25-6.61,23.73-19.59,9.66-26.45Z"/>
      <path class="cls-2" d="M54.29,41.63l10.76,.56c7.46-5.88,16.96-13.17,23.22-17.98l-33.98,1.77c-3.94,.22-7.2,3.38-7.42,7.42-.23,4.32,3.09,8.01,7.42,8.23Z"/>
    </g>
    <text class="cls-1" transform="translate(160.13 75.05) scale(.96 1)"><tspan class="cls-7" x="0" y="0">E</tspan><tspan x="60.05" y="0">qua</tspan><tspan class="cls-5" x="238.64" y="0">f</tspan><tspan x="278.93" y="0">ly</tspan></text>
  </g>
</svg>