<svg xmlns="http://www.w3.org/2000/svg" fill="white" x="0px" y="0px" viewBox="0 0 467.4 114.9" xml:space="preserve"><g><g><g><g><path class="st0" d="M68.4,0v21.9H54.2c-11,0-21.9,2.8-31.5,8.3V6c10-4,20.7-6,31.5-6H68.4z"></path><path class="st0" d="M74.4,52.5v21.9H22.8C25.1,68,29.4,62.4,35,58.5c5.6-3.9,12.3-6,19.1-6H74.4z"></path><path class="st0" d="M54.3,30.6v13.1h-0.1c-9.2,0-18.1,3-25.5,8.5C21.4,57.8,16,65.6,13.5,74.4H0C2.7,62,9.5,50.9,19.4,43s22.1-12.3,34.8-12.3H54.3z"></path></g><g><path class="st0" d="M130.3,11.2v21.7h29.1v8.7h-29.1v21.7h35.4v8.7h-45.7V2.5h45.7v8.7H130.3z"></path><path class="st0" d="M222.5,21.4v69.3H213V67.6c0-1.8,0.2-3.2,1-5.3c0.3-0.8,0.8-1.7-0.2-2c-0.6-0.2-0.9,0.6-1,0.9c-2.4,7.1-9.1,11.4-16.9,11.4c-13.1,0-22.3-11-22.3-26s9.2-26,22.3-26c8.1,0,14.7,4.4,16.9,11.2c0.1,0.3,0.4,1.3,1.2,1c0.9-0.3,0.3-1.3,0-2.1c-0.8-2.1-1-3.5-1-5.4v-3.9H222.5z M213,46.6c0-9.4-6.2-17.3-15.2-17.3c-9.8,0-14.8,8-14.8,17.3S188,64,197.9,64C206.8,64,213,56,213,46.6z"></path><path class="st0" d="M232.7,51.4V21.4h9.5v28c0,11.7,5,15,11.6,15c7.3,0,15.2-7.4,15.2-19.4V21.4h9.5v50.4H269v-3.3c0-2.1,0.2-4.1,1.1-6.7c0.3-0.9,0.7-1.8-0.1-2.1c-0.6-0.2-0.9,0.5-1.1,0.9c-2.4,4.7-8.4,12-17.4,12C239.8,72.6,232.7,66.1,232.7,51.4z"></path><path class="st0" d="M335.9,21.4v50.4h-9.5v-4.2c0-1.8,0.2-3.2,1-5.3c0.3-0.8,0.8-1.7-0.2-2c-0.6-0.2-0.9,0.6-1,0.9c-2.4,7.1-9.1,11.4-16.9,11.4c-13.1,0-22.3-11-22.3-26s9.2-26,22.3-26c8.1,0,14.7,4.4,16.9,11.2c0.1,0.3,0.4,1.3,1.2,1c0.9-0.3,0.3-1.3,0-2.1c-0.8-2.1-1-3.5-1-5.4v-3.9H335.9z M326.5,46.6c0-9.4-6.2-17.3-15.2-17.3c-9.8,0-14.8,8-14.8,17.3S301.4,64,311.3,64C320.3,64,326.5,56,326.5,46.6z"></path><path class="st0" d="M393.4,1v70.9H384v-4.2c0-1.8,0.2-3.2,1-5.3c0.3-0.8,0.8-1.7-0.2-2c-0.6-0.2-0.9,0.6-1,0.9c-2.4,7.1-9.1,11.4-16.9,11.4c-13.1,0-22.3-11-22.3-26s9.2-26,22.3-26c8.1,0,14.7,4.4,16.9,11.2c0.1,0.3,0.4,1.3,1.2,1c0.9-0.3,0.3-1.3,0-2.1c-0.8-2.1-1-3.5-1-5.4V1H393.4z M384,46.6c0-9.4-6.2-17.3-15.2-17.3c-9.8,0-14.8,8-14.8,17.3S358.9,64,368.8,64C377.7,64,384,56,384,46.6z"></path><path class="st0" d="M404.8,1h10.2v11h-10.2V1z M405.2,21.4h9.5v50.4h-9.5V21.4z"></path><path class="st0" d="M432.6,54.3c0.1,3.8,3.2,10,13.1,10c9.6,0,12.3-3.8,12.3-7.1c0-4.5-4.2-5.9-15.8-7.1c-13.2-1.4-17.3-7.4-17.3-14c0-7.6,6.9-15.6,20.7-15.6c12.7,0,19.6,7.3,20.3,16.7h-9.3c-0.3-3.2-2.5-8.5-11.3-8.5c-8,0-10.9,3.2-10.9,6.6c0,3.2,1.9,5.4,12.8,6.6c13.6,1.5,20.3,5.4,20.3,13.7c0,10.2-8.4,16.8-22.2,16.8c-13.7,0-21.5-7.2-22-18.3H432.6z"></path></g></g></g><g><g><path class="st0" d="M245,93.1v5.9h8v2.4h-8v5.9h9.7v2.4h-12.5v-19h12.5v2.4H245z"></path><path class="st0" d="M276.8,101.3v8.4h-2.6V101c0-2.2-1.1-3-2.7-3c-1.5,0-3.1,1.4-3.1,3.9v7.8h-2.6v-8.4c0-2.2-0.7-3.3-2.5-3.3c-1.7,0-3.3,1.8-3.3,4.5v7.2h-2.6V95.9h2.6v0.9c0,0.5-0.1,1-0.3,1.8c-0.1,0.2-0.1,0.4,0.1,0.5c0.2,0.1,0.3-0.1,0.3-0.2c0.7-1.9,2.3-3.1,4.2-3.1c1.8,0,3.1,1.2,3.5,2.9c0,0.1,0.1,0.2,0.3,0.2c0.2,0,0.2-0.1,0.3-0.2c0.7-1.9,2.1-2.9,3.8-2.9C274.7,95.7,276.8,97.1,276.8,101.3z"></path><path class="st0" d="M282,97c0,0.5-0.1,0.9-0.3,1.5c-0.1,0.2-0.2,0.5,0,0.6c0.2,0.1,0.3-0.2,0.3-0.3c0.8-1.8,2.4-3.1,4.6-3.1c3.6,0,6.1,3,6.1,7.1s-2.5,7.1-6.1,7.1c-2.2,0-3.8-1.3-4.6-3.1c0-0.1-0.1-0.3-0.3-0.2c-0.3,0.1-0.1,0.3-0.1,0.5c0.2,0.6,0.3,1,0.3,1.5v6.3h-2.6v-19h2.6V97z M290.2,102.8c0-2.6-1.3-4.7-4-4.7c-2.5,0-4.2,2.2-4.2,4.7s1.7,4.7,4.2,4.7C288.8,107.6,290.2,105.4,290.2,102.8z"></path><path class="st0" d="M307.7,102.8c0,3.9-2.5,7.1-6.7,7.1c-4.2,0-6.7-3.2-6.7-7.1s2.5-7.1,6.7-7.1C305.2,95.7,307.7,98.9,307.7,102.8z M305.1,102.8c0-2.6-1.5-4.7-4.1-4.7s-4.1,2.1-4.1,4.7s1.5,4.7,4.1,4.7S305.1,105.5,305.1,102.8z"></path><path class="st0" d="M310.6,95.9l2.8,10.3c0.1,0.5,0.2,1.1,0.2,1.6c0,0.2,0,0.3,0.2,0.3s0.2-0.2,0.2-0.3c0-0.5,0.1-1.1,0.2-1.6l2.6-10.3h3l2.6,10.3c0.1,0.5,0.2,1.1,0.2,1.6c0,0.2,0,0.3,0.2,0.3s0.2-0.2,0.2-0.3c0-0.5,0.1-1.1,0.2-1.6l2.8-10.3h2.8l-4.2,13.8h-3.5l-2.6-9.8c-0.1-0.4-0.1-0.9-0.1-1.5c0-0.2,0-0.4-0.2-0.4c-0.2,0-0.2,0.2-0.2,0.4c0,0.5-0.1,1.1-0.1,1.5l-2.6,9.8H312l-4.2-13.8H310.6z"></path><path class="st0" d="M342,103.6h-10.3c0.2,2.2,1.7,4,4.2,4c1.9,0,2.8-0.9,3.3-2.5h2.7c-0.6,2.6-2.5,4.9-6,4.9c-4.3,0-6.7-3.2-6.7-7.1c0-4.2,2.7-7.1,6.7-7.1c3.1,0,6.3,2,6.3,6.9C342.1,103,342,103.3,342,103.6z M339.5,101.4c-0.2-2-1.5-3.5-3.6-3.5c-2.6,0-3.7,1.6-4.1,3.5H339.5z"></path><path class="st0" d="M346.6,98.9c0.9-2.2,1.6-3.2,5.1-3.2v2.6c-4-0.3-5.2,1.2-5.2,4.8v6.6H344V95.9h2.6v0.9c0,0.6-0.1,1-0.3,1.8c-0.1,0.2-0.1,0.4,0.1,0.5C346.5,99.2,346.5,99,346.6,98.9z"></path><path class="st0" d="M359.7,95.9l3.7,10.2c0.2,0.5,0.2,1,0.2,1.5c0,0.2,0,0.4,0.2,0.4c0.2,0,0.2-0.2,0.2-0.4c0-0.5,0.1-1,0.2-1.5l3.6-10.2h2.8l-6,15.4c-1,2.5-2.3,3.5-4.8,3.5h-1.8v-2.3h1.2c2,0,2.4-0.5,2.8-1.5l0.4-0.9l-5.7-14.3H359.7z"></path><path class="st0" d="M384.2,102.8c0,3.9-2.5,7.1-6.7,7.1c-4.2,0-6.7-3.2-6.7-7.1s2.5-7.1,6.7-7.1C381.7,95.7,384.2,98.9,384.2,102.8z M381.6,102.8c0-2.6-1.5-4.7-4.1-4.7s-4.1,2.1-4.1,4.7s1.5,4.7,4.1,4.7S381.6,105.5,381.6,102.8z"></path><path class="st0" d="M386.1,104.1v-8.2h2.6v7.7c0,3.2,1.4,4.1,3.2,4.1c2,0,4.2-2,4.2-5.3v-6.4h2.6v13.8H396v-0.9c0-0.6,0.1-1.1,0.3-1.8c0.1-0.2,0.2-0.5,0-0.6c-0.2-0.1-0.2,0.1-0.3,0.2c-0.6,1.3-2.3,3.3-4.8,3.3C388.1,110,386.1,108.2,386.1,104.1z"></path><path class="st0" d="M404.2,98.9c0.9-2.2,1.6-3.2,5.1-3.2v2.6c-4-0.3-5.2,1.2-5.2,4.8v6.6h-2.6V95.9h2.6v0.9c0,0.6-0.1,1-0.3,1.8c-0.1,0.2-0.1,0.4,0.1,0.5C404.1,99.2,404.2,99,404.2,98.9z"></path><path class="st0" d="M428.8,90.3v19.4h-2.6v-1.2c0-0.5,0.1-0.9,0.3-1.5c0.1-0.2,0.2-0.5-0.1-0.5c-0.2-0.1-0.2,0.2-0.3,0.2c-0.6,1.9-2.5,3.1-4.6,3.1c-3.6,0-6.1-3-6.1-7.1s2.5-7.1,6.1-7.1c2.2,0,4,1.2,4.6,3.1c0,0.1,0.1,0.4,0.3,0.3c0.2-0.1,0.1-0.4,0-0.6c-0.2-0.6-0.3-1-0.3-1.5v-6.7H428.8z M426.2,102.8c0-2.6-1.7-4.7-4.2-4.7c-2.7,0-4,2.2-4,4.7s1.3,4.7,4,4.7C424.5,107.6,426.2,105.4,426.2,102.8z"></path><path class="st0" d="M435.8,101.6c2.5-0.2,5,0.1,5-1.3c0-1.1-0.7-2.3-3.5-2.3c-2.4,0-3.3,0.9-3.5,2.3h-2.5c0.5-3.2,2.9-4.5,6.1-4.5c3.1,0,6,1.1,6,6.1v7.9h-2.6v-1.3c0-0.5,0.1-0.9,0.3-1.6c0.1-0.2,0.2-0.5,0-0.5c-0.2-0.1-0.3,0.1-0.3,0.3c-0.8,2-2.6,3.4-5.1,3.4c-2.6,0-4.7-1.7-4.7-4.1C430.9,102.7,433.2,101.8,435.8,101.6z M436,103.7c-1.7,0.2-2.5,0.8-2.5,2.1c0,1.1,0.9,2.1,3.2,1.8c2.1-0.3,4.2-1.8,4.2-5.3C439.9,103.3,438.1,103.4,436,103.7z"></path><path class="st0" d="M449.6,98.2v7.2c0,1.6,0.3,2,1.8,2h2v2.3h-2.3c-2.9,0-4.2-1.1-4.2-4v-7.5h-2.6v-2.3h2.6v-3.9h2.6v3.9h3.9v2.3H449.6z"></path><path class="st0" d="M459.9,101.6c2.5-0.2,5,0.1,5-1.3c0-1.1-0.7-2.3-3.5-2.3c-2.4,0-3.3,0.9-3.5,2.3h-2.5c0.5-3.2,2.9-4.5,6.1-4.5c3.1,0,6,1.1,6,6.1v7.9h-2.6v-1.3c0-0.5,0.1-0.9,0.3-1.6c0.1-0.2,0.2-0.5,0-0.5c-0.2-0.1-0.3,0.1-0.3,0.3c-0.8,2-2.6,3.4-5.1,3.4c-2.6,0-4.7-1.7-4.7-4.1C454.9,102.7,457.2,101.8,459.9,101.6z M460,103.7c-1.7,0.2-2.5,0.8-2.5,2.1c0,1.1,0.9,2.1,3.2,1.8c2.1-0.3,4.2-1.8,4.2-5.3C464,103.3,462.1,103.4,460,103.7z"></path></g></g></g></svg>